HIERARCHY
ROOT Hips
{
  OFFSET 10.6522 105.283 -167.106
  CHANNELS 6 Xposition Yposition Zposition Zrotation Xrotation Yrotation
  JOINT RightUpLeg
  {
    OFFSET -8.9458 -8.66707 0.101652
    CHANNELS 3 Zrotation Xrotation Yrotation
    JOINT RightLeg
    {
      OFFSET 0 -44.4227 1.3727
      CHANNELS 3 Zrotation Xrotation Yrotation
      JOINT RightFoot
      {
        OFFSET 0.253549 -42.0924 -1.46059
        CHANNELS 3 Zrotation Xrotation Yrotation
        JOINT RightToes
        {
          OFFSET 0.04 -4.41509 8.4991
          CHANNELS 3 Zrotation Xrotation Yrotation
          End Site
          {
            OFFSET -0.08 -0.137448 9.77979
          }
        }
      }
    }
  }
  JOINT Spine
  {
    OFFSET 0 11.8905 0
    CHANNELS 3 Zrotation Xrotation Yrotation
    JOINT Spine1
    {
      OFFSET 0 25.6574 0.127663
      CHANNELS 3 Zrotation Xrotation Yrotation
      JOINT HEad
      {
        OFFSET 0 8.73416 0.011341
        CHANNELS 3 Zrotation Xrotation Yrotation
        End Site
        {
          OFFSET -0.29 12.7742 2.51395
        }
      }
      JOINT LeftShoulder1
      {
        OFFSET 8.99 -0.362252 -0.22
        CHANNELS 3 Zrotation Xrotation Yrotation
        JOINT LeftArm
        {
          OFFSET 10.2827 -0.00338 0.322123
          CHANNELS 3 Zrotation Xrotation Yrotation
          JOINT LeftForeArm
          {
            OFFSET 32.7669 0.099144 -1.42434
            CHANNELS 3 Zrotation Xrotation Yrotation
            JOINT LeftHand
            {
              OFFSET 27.5643 0.085362 1.02216
              CHANNELS 3 Zrotation Xrotation Yrotation
              End Site
              {
                OFFSET 16.7443 -0.6 1.50291
              }
            }
          }
        }
      }
      JOINT RightShoulder
      {
        OFFSET -8.99 -0.362252 -0.22
        CHANNELS 3 Zrotation Xrotation Yrotation
        JOINT RightArm
        {
          OFFSET -10.2827 -0.00338 0.322123
          CHANNELS 3 Zrotation Xrotation Yrotation
          JOINT RightForeArm
          {
            OFFSET -32.8971 0.099144 -1.42434
            CHANNELS 3 Zrotation Xrotation Yrotation
            JOINT RightHand
            {
              OFFSET -27.4921 0.085362 1.02216
              CHANNELS 3 Zrotation Xrotation Yrotation
              End Site
              {
                OFFSET -16.6312 -0.6 1.50291
              }
            }
          }
        }
      }
    }
  }
  JOINT LeftUpLeg
  {
    OFFSET 8.9458 -8.66707 0.101652
    CHANNELS 3 Zrotation Xrotation Yrotation
    JOINT LeftLeg
    {
      OFFSET 0 -44.4227 1.3727
      CHANNELS 3 Zrotation Xrotation Yrotation
      JOINT LeftFoot
      {
        OFFSET -0.253549 -42.0924 -1.46059
        CHANNELS 3 Zrotation Xrotation Yrotation
        JOINT LeftToes
        {
          OFFSET -0.04 -4.41509 8.4991
          CHANNELS 3 Zrotation Xrotation Yrotation
          End Site
          {
            OFFSET 0.08 -0.047448 9.77979
          }
        }
      }
    }
  }
}
MOTION
Frames:	16
Frame Time:	0.0166667
10.9968 102.653 -79.76 1.14728 2.14535 -172.848 3.5458 -23.4842 0.384925 3.57165 20.7883 -28.097 11.0707 4.93629 -0.982488 -4.35066 -8.26904 -6.08509 -2.73036 0.523587 -0.214987 -0.301806 0.700022 -0.292588 5.30287 0.89024 5.7553 4.22417e-016 0 -7.95139e-016 -91.7082 -11.4611 -21.0285 -22.4669 9.19565 13.092 0.368473 9.90896 -0.00117926 2.31333 -0.177734 -5.20142 83.5434 -28.6637 4.81885 21.8063 12.0999 1.87234 -0.369625 9.91382 0.00119886 -1.45813 7.86395 -0.443893 2.93511 41.0897 10.2158 0.830803 -10.1491 0.133929 -4.37202 3.11135 -9.37262 
11.3147 103.037 -82.1785 1.77507 2.48916 -173.265 4.95101 -21.7598 0.602956 3.42462 21.0074 -27.3039 10.861 3.62801 -0.84419 -4.47548 -8.45367 -6.29023 -2.92111 0.572341 0.0659933 0.63423 0.943078 -0.285177 5.16767 0.673811 5.76608 -2.48481e-017 -1.98785e-016 -7.95139e-016 -92.0456 -10.9151 -21.6098 -22.4812 9.36586 13.1673 0.368473 9.90896 -0.00117926 1.62527 -0.167795 -5.20201 84.5456 -28.3312 5.69726 21.5904 12.106 1.79908 -0.369625 9.91382 0.00119886 -0.348948 6.24057 -1.16067 2.18819 44.8752 12.6978 0.419003 -5.24461 0.0889018 -5.15704 8.35778 -14.1958 
11.6698 103.417 -84.3833 2.28194 2.72399 -173.498 6.13411 -19.9698 1.29638 3.46558 20.7121 -27.3187 10.523 2.32883 -0.708761 -4.49489 -8.37669 -6.50789 -2.71425 0.770063 0.180894 1.00798 1.14824 -0.28176 5.34491 0.767935 5.7773 1.2424e-017 0 1.59028e-015 -92.1539 -10.5914 -22.1863 -22.4826 9.55924 13.1696 0.368473 9.90896 -0.00117926 1.12787 -0.151366 -5.10507 85.5982 -27.9011 6.4849 21.4534 12.1606 2.02568 -0.369625 9.91382 0.00119886 0.526629 3.84289 -0.637576 3.23638 48.9927 12.2266 0.124336 0.796186 0.0804311 -4.91265 10.8195 -15.4294 
12.0085 103.766 -86.4493 2.75101 2.83702 -173.597 7.1459 -18.2418 2.08561 3.58146 20.1418 -27.6724 10.2716 1.11595 -0.58965 -4.49679 -8.27168 -6.70327 -2.30527 1.02148 0.216827 1.18078 1.30668 -0.279117 5.56631 0.922146 5.74303 1.86361e-016 0 -0 -92.1985 -10.4133 -22.7428 -22.4821 9.74949 13.1545 0.368473 9.90896 -0.00117926 0.705718 -0.132461 -4.96408 86.5893 -27.3169 7.23325 21.4285 12.2637 2.55318 -0.369625 9.91382 0.00119886 1.23911 0.896314 0.173233 5.37313 53.2943 10.2885 0.072096 6.36706 0.0632194 -4.42631 11.9802 -14.886 
12.2694 104.028 -88.4022 3.295 2.71191 -173.517 8.02695 -16.9128 2.94254 3.84702 19.6177 -28.3602 10.3416 0.0677991 -0.502293 -4.53749 -8.25986 -6.89905 -1.73724 1.28014 0.211882 1.44315 1.26241 -0.283002 5.61859 1.03639 5.64835 4.84538e-016 2.48481e-017 7.95139e-016 -92.3057 -10.4192 -23.1822 -22.4933 9.90661 13.1533 0.368473 9.90896 -0.00117926 0.350158 -0.116325 -4.8371 87.2552 -26.5305 7.85297 21.6101 12.4231 3.47326 -0.369625 9.91382 0.00119886 1.6327 -2.52849 0.680066 8.23699 57.559 7.41815 0.592389 9.88354 -0.0222708 -3.56827 12.4877 -13.3018 
12.4789 104.251 -90.2832 3.77168 2.45861 -173.372 8.70213 -15.7618 3.52736 4.0973 19.0975 -28.8946 10.5163 -0.905528 -0.425885 -4.59088 -8.28959 -7.07435 -1.16111 1.50063 0.186387 1.68189 1.15124 -0.288904 5.52963 1.05252 5.54812 9.62863e-017 0 -0 -92.4437 -10.6225 -23.498 -22.5181 10.0053 13.1588 0.368473 9.90896 -0.00117926 -0.0150265 -0.0955212 -4.63593 87.7828 -25.649 8.48251 21.86 12.6152 4.59013 -0.369625 9.91382 0.00119886 1.8238 -6.16504 0.780766 11.3997 61.5902 4.34138 1.2264 11.4604 -0.107703 -2.80923 12.2296 -11.4223 
12.6328 104.469 -92.1405 4.06281 2.12131 -173.246 9.09154 -14.7127 3.35086 4.21307 18.6607 -28.6567 10.6688 -1.89876 -0.340512 -4.60336 -8.29513 -7.11307 -0.779294 1.59698 0.182006 1.90367 1.03969 -0.295092 5.24883 0.850941 5.59848 -1.2424e-017 -9.93923e-017 -0 -92.6419 -11.0732 -23.6214 -22.5637 9.99637 13.1753 0.368473 9.90896 -0.00117926 -0.491631 -0.0636003 -4.29946 88.2473 -24.754 9.21117 22.0868 12.8335 5.79031 -0.369625 9.91382 0.00119886 1.74371 -9.74721 0.0119358 13.0272 65.3544 3.16938 1.51652 10.0582 -0.126959 -2.71763 11.1833 -10.5949 
12.7609 104.672 -93.9795 4.20829 1.78087 -173.177 9.34502 -13.6704 2.85626 4.20919 18.2491 -28.0601 10.7725 -2.81911 -0.259469 -4.71258 -8.44017 -7.32343 -0.483032 1.64439 0.172857 2.03946 0.979609 -0.298973 4.79559 0.51572 5.48098 -3.72721e-016 -1.98785e-016 1.59028e-015 -92.829 -11.7066 -23.6457 -22.6276 9.92163 13.2003 0.368473 9.90896 -0.00117926 -1.01261 -0.0227524 -3.80454 88.7133 -23.8665 10.0915 22.2548 13.043 6.91651 -0.369625 9.91382 0.00119886 1.393 -13.204 -1.20333 13.3979 68.5323 3.3505 1.74519 7.55532 -0.12309 -2.73481 9.78276 -9.82632 
12.8939 104.879 -95.827 4.16757 1.53188 -173.236 9.523 -12.4763 2.19976 3.99214 17.7704 -27.1495 10.6905 -3.5431 -0.194679 -5.15925 -8.9709 -8.2635 -0.250944 1.69129 0.145388 1.99106 1.04203 -0.297333 4.04188 0.0459717 4.66413 -4.72114e-016 3.97569e-016 7.95139e-016 -92.9304 -12.5035 -23.6308 -22.7212 9.80476 13.2373 0.368473 9.90896 -0.00117926 -1.55323 0.0311463 -3.05009 89.2616 -23.0517 11.1928 22.3046 13.2131 7.76759 -0.369625 9.91382 0.00119886 0.847218 -16.3744 -2.69821 12.2757 70.6698 4.98725 2.02025 5.75949 -0.122798 -2.44152 8.49167 -8.50001 
13.0256 105.037 -97.667 4.05569 1.37642 -173.407 9.72107 -11.2464 1.72725 3.73827 17.4119 -26.4038 10.6238 -4.25758 -0.130506 -5.62048 -9.56395 -9.07531 -0.0228815 1.73209 0.104281 1.85271 1.23592 -0.290301 3.34696 -0.426 3.94351 -4.72114e-016 1.98785e-016 7.95139e-016 -92.9835 -13.3765 -23.6081 -22.8098 9.65118 13.2738 0.368473 9.90896 -0.00117926 -2.08975 0.0856363 -2.20887 89.9115 -22.2505 12.5486 22.2417 13.3407 8.3559 -0.369625 9.91382 0.00119886 0.191388 -19.2458 -4.15116 10.2401 71.9348 7.56833 2.42483 3.84263 -0.111153 -1.96079 7.16091 -6.81177 
13.1671 105.087 -99.4897 3.97804 1.37227 -173.693 10.0252 -10.0664 2.02677 3.60033 17.4236 -26.5998 10.8205 -5.16343 -0.0502361 -5.66548 -9.86157 -8.72684 0.29275 1.78784 0.0379877 1.64837 1.6434 -0.274504 3.1664 -0.774536 4.0468 2.48481e-016 0 -0 -92.9793 -14.213 -23.6395 -22.8511 9.46569 13.2948 0.368473 9.90896 -0.00117926 -2.55876 0.128039 -1.45138 90.7384 -21.3986 14.2836 22.038 13.3999 8.56422 -0.369625 9.91382 0.00119886 -0.315122 -21.7664 -5.06768 8.6504 72.4026 9.81849 3.19477 1.43871 -0.0833862 -1.24532 5.87396 -4.7266 
13.2975 105.07 -101.304 3.93034 1.44769 -174.106 10.3638 -8.88149 2.49489 3.47354 17.5901 -26.861 11.0089 -6.09507 0.0312084 -5.71491 -10.2503 -8.27153 0.623045 1.82704 -0.0183447 1.49011 2.11602 -0.257246 3.18105 -0.972566 4.64487 1.98785e-016 -3.97569e-016 7.95139e-016 -92.9934 -15.0631 -23.6868 -22.88 9.27368 13.3117 0.368473 9.90896 -0.00117926 -3.04985 0.162852 -0.683269 91.63 -20.5696 16.1857 21.7334 13.4266 8.58023 -0.369625 9.91382 0.00119886 -0.711004 -23.9605 -5.65887 7.32609 72.0072 11.8921 3.98491 -1.03059 -0.0359215 -0.379653 4.40555 -2.31265 
13.3984 105.006 -103.115 3.95516 1.56681 -174.689 10.7736 -7.63625 2.6573 3.27177 17.7565 -26.3871 10.9049 -6.90085 0.0975783 -6.21754 -11.1866 -8.66631 0.916558 1.81417 -0.0246683 1.53694 2.5456 -0.245032 3.19738 -0.916305 5.76357 3.47873e-016 -3.97569e-016 -0 -93.1113 -15.9589 -23.7145 -22.9132 9.0923 13.3456 0.368473 9.90896 -0.00117926 -3.64467 0.192499 0.173727 92.5246 -19.8373 18.1239 21.3369 13.445 8.54401 -0.369625 9.91382 0.00119886 -0.988064 -25.8073 -5.9185 6.61313 70.6833 13.4894 4.51665 -3.29497 0.0473586 0.652154 2.32723 0.607482 
13.4728 104.904 -104.926 4.01772 1.67951 -175.347 11.1673 -6.41469 2.74427 3.09978 17.983 -25.7313 10.7885 -7.73996 0.169183 -6.75638 -12.0904 -9.1919 1.19991 1.78235 -0.00721252 1.67308 2.89333 -0.236846 3.23445 -0.714097 7.06533 1.98785e-016 7.95139e-016 -7.95139e-016 -93.2905 -16.8439 -23.7766 -22.9641 8.95104 13.3531 0.368473 9.90896 -0.00117926 -4.30402 0.210561 0.997457 93.4211 -19.1533 20.0071 20.9044 13.4585 8.48313 -0.369625 9.91382 0.00119886 -1.13771 -27.3781 -6.01333 6.11104 68.5191 14.9049 4.82694 -5.26622 0.134985 1.74045 0.355778 3.33186 
13.5094 104.784 -106.745 4.10104 1.71392 -176.016 11.4443 -5.29549 2.87445 3.08972 18.3226 -25.1733 10.9937 -8.86065 0.28172 -6.84757 -12.1469 -9.44313 1.48625 1.76031 0.0254586 1.86722 3.05684 -0.235724 3.25015 -0.397233 8.2252 -0 -3.97569e-016 -0 -93.5544 -17.6865 -23.953 -23.0635 8.89883 13.2978 0.368473 9.90896 -0.00117926 -5.08084 0.20637 1.68019 94.3371 -18.4902 21.6874 20.4914 13.4729 8.43993 -0.369625 9.91382 0.00119886 -1.19058 -28.7401 -6.15583 5.39744 65.533 16.5755 4.77729 -6.71061 0.196733 2.47449 -0.807373 5.07117 
13.5327 104.635 -108.566 4.18064 1.69843 -176.657 11.6565 -4.23924 2.90271 3.07986 18.6495 -24.738 11.0806 -9.84399 0.373768 -7.01023 -12.5408 -9.39537 1.76475 1.72563 0.0603894 2.02508 3.11864 -0.236008 3.25129 -0.0943678 9.23218 -1.2424e-016 3.97569e-016 -0 -93.8021 -18.4391 -24.1287 -23.1769 8.89419 13.1793 0.368473 9.90896 -0.00117926 -5.77858 0.195259 2.25692 95.163 -17.8815 23.2102 20.1071 13.5048 8.51034 -0.369625 9.91382 0.00119886 -1.16383 -29.8663 -6.26066 4.83839 61.8342 17.8969 4.5937 -7.79446 0.243159 2.98921 -1.55013 6.28284 
